<?xml version="1.0" encoding="utf-8"?>
<!-- Generator: Adobe Illustrator 21.0.0, SVG Export Plug-In . SVG Version: 6.00 Build 0)  -->
<svg version="1.1" id="Layer_1" xmlns="http://www.w3.org/2000/svg" xmlns:xlink="http://www.w3.org/1999/xlink" x="0px" y="0px"
	 viewBox="0 0 83.8 89.7" style="enable-background:new 0 0 83.8 89.7;" xml:space="preserve">
<style type="text/css">
	.st0{fill:#272D63;}
	.st1{fill:#75A0D5;}
	.st2{fill:#FEFEFE;}
</style>
<title>Page 1 Copy 4</title>
<desc>Created with Sketch.</desc>
<g id="Artboard-2" transform="translate(-111.000000, -113.000000)">
	<g id="Page-1-Copy-4" transform="translate(111.000000, 113.000000)">
		<g id="Group">
			<path id="Fill-1" class="st0" d="M41.1,89.3c0.6,0.5,0.9,0.4,1.6-0.1C70.8,71.6,86.3,42.4,83.4,5.9c-31.9-8-54.1-7.9-83.1,0
				C-2.5,42.4,13,71.6,41.1,89.3z"/>
			<path id="Fill-4" class="st1" d="M73.2,45.5c-4.4,17.6-22.3,28.4-39.9,24c-17.6-4.4-28.4-22.3-24-39.9C13.7,12,31.6,1.2,49.2,5.6
				C66.9,10,77.6,27.9,73.2,45.5"/>
			<path id="Fill-6" class="st2" d="M53,41.8c-1.2,0.2-1.8,0.3-3.1,0.4c-0.6,0-1.1,0.1-1.7,0.1c1.7,1.1,2.7,2.7,2.2,4.9
				c-1,4-6.3,3.5-10.2,2.6l-1.3,5.4h0l-0.1,0.2l-1.7,7l4.4,1.1l1.8-7.3c7.5,1.4,13.2,0.8,15.5-5.9c1.5-4.2,0.4-7.5-1.9-9.5
				c0,0-0.1,0-0.1,0.1C55.7,41.1,54.2,41.5,53,41.8"/>
			<path id="Fill-8" class="st2" d="M51.7,32.9c-1.2,5-8.9,2.4-11.4,1.8l2.2-8.8C45,26.5,53,27.7,51.7,32.9 M51.6,22.8l1.8-7.2
				L49,14.5l-1.8,7c-1.2-0.3-2.3-0.6-3.5-0.8l1.8-7.1l-4.4-1.1l-1.8,7.2c-1-0.2-1.9-0.4-2.8-0.7l0,0l-6.1-1.5l-1.2,4.7
				c0,0,3.3,0.7,3.2,0.8c1.8,0.4,2.1,1.6,2.1,2.6l-1.3,5.3L32,35.5l-2.5,9.9c-0.2,0.5-0.8,1.4-2,1c0,0.1-3.2-0.8-3.2-0.8l-2.2,5
				l5.7,1.4c1.1,0.3,2.1,0.5,3.1,0.8l-1.8,7.3l4.4,1.1l1.8-7.2c0.6,0.2,1.8,0.5,2.5,0.7l1.3-5.3c-0.7-0.2-1.9-0.5-2.3-0.6l2.4-9.7
				c0,0,0.1,0,0.1,0c0.4,0.1,0.9,0.2,1.5,0.3c1.8,0.4,3.6,0.6,5.5,0.7c1.1,0.1,2.2,0.1,3.4,0.1c1.7,0,3.4-0.3,4.9-0.9
				c1.3-0.4,2.9-1,3.9-2.1c1.1-1.2,1.7-2.8,2-4.5C61.2,27.6,57.1,24.7,51.6,22.8"/>
		</g>
	</g>
</g>
</svg>
