<?xml version="1.0" encoding="UTF-8"?>
<svg width="382px" height="90px" viewBox="0 0 382 90" version="1.1" xmlns="http://www.w3.org/2000/svg" xmlns:xlink="http://www.w3.org/1999/xlink">
    <!-- Generator: Sketch 48.2 (47327) - http://www.bohemiancoding.com/sketch -->
    <title>Page 1 Copy 4</title>
    <desc>Created with Sketch.</desc>
    <defs></defs>
    <g id="Artboard-2" stroke="none" stroke-width="1" fill="none" fill-rule="evenodd" transform="translate(-111.000000, -113.000000)">
        <g id="Page-1-Copy-4" transform="translate(111.000000, 113.000000)">
            <g id="Group">
                <path d="M41.1452,89.3123 C41.7782,89.8393 42.0522,89.7123 42.7082,89.2593 C70.7822,71.5743 86.2952,42.4113 83.4332,5.9273 C51.5482,-2.0257 29.3602,-1.9267 0.3372,5.9273 C-2.5288,42.4493 13.0172,71.6323 41.1452,89.3123 Z" id="Fill-1" fill="#272D63"></path>
                <path d="M73.1902,45.5221 C68.7922,63.1641 50.9242,73.9001 33.2812,69.5011 C15.6452,65.1021 4.9082,47.2341 9.3092,29.5931 C13.7052,11.9501 31.5732,1.2131 49.2112,5.6111 C66.8532,10.0091 77.5882,27.8801 73.1902,45.5221" id="Fill-4" fill="#75A0D5"></path>
                <path d="M52.9993,41.7594 C51.7633,41.9724 51.1503,42.0524 49.8993,42.1254 C49.3283,42.1594 48.7553,42.1954 48.1813,42.2264 C49.8413,43.3634 50.8813,44.9174 50.3423,47.0784 C49.3373,51.1134 44.0663,50.5654 40.1683,49.7004 L38.8573,55.0654 L38.8583,55.0654 L38.7993,55.3004 L37.0913,62.2844 L41.4653,63.3744 L43.2893,56.0664 C50.8043,57.4884 56.4553,56.9134 58.8333,50.1164 C60.3133,45.8914 59.2413,42.6364 56.9513,40.6114 C56.9023,40.6354 56.8533,40.6574 56.8063,40.6744 C55.7423,41.0584 54.2453,41.5454 52.9993,41.7594" id="Fill-6" fill="#FEFEFE"></path>
                <path d="M51.7053,32.8795 C50.4623,37.8585 42.7933,35.3285 40.3053,34.7085 L42.4993,25.9095 C44.9873,26.5295 52.9993,27.6875 51.7053,32.8795 M51.5773,22.8245 L53.3823,15.5845 L48.9753,14.4855 L47.2183,21.5345 C46.0593,21.2465 44.8693,20.9745 43.6863,20.7045 L45.4563,13.6085 L41.0523,12.5105 L39.2463,19.7475 C38.2873,19.5295 37.3463,19.3135 36.4323,19.0865 L36.4363,19.0645 L30.3593,17.5465 L29.1863,22.2535 C29.1863,22.2535 32.4563,23.0025 32.3883,23.0495 C34.1723,23.4945 34.4953,24.6755 34.4413,25.6115 L33.1233,30.8985 L31.9753,35.5035 L29.4963,45.4445 C29.2773,45.9875 28.7243,46.8015 27.4763,46.4915 C27.5203,46.5565 24.2723,45.6925 24.2723,45.6925 L22.0853,50.7365 L27.8203,52.1665 C28.8873,52.4345 29.9323,52.7145 30.9613,52.9785 L29.1383,60.3005 L33.5393,61.3995 L35.3463,54.1535 C35.9823,54.3265 37.1853,54.6505 37.8043,54.8115 L39.1103,49.4675 C38.4143,49.2885 37.2343,48.9645 36.7783,48.8515 L39.1983,39.1495 C39.2313,39.1575 39.2683,39.1665 39.3033,39.1745 C39.7073,39.2735 40.2163,39.3845 40.7953,39.5165 C42.5733,39.9305 44.4393,40.0835 46.2543,40.2195 C47.3703,40.3025 48.4903,40.3585 49.6093,40.3445 C51.2773,40.3235 52.9793,40.0125 54.5563,39.4845 C55.8803,39.0425 57.4553,38.4765 58.4383,37.4335 C59.5883,36.2135 60.1663,34.5925 60.4113,32.9585 C61.2103,27.6135 57.1413,24.7405 51.5773,22.8245" id="Fill-8" fill="#FEFEFE"></path>
            </g>
            <g id="Group-2" transform="translate(92.000000, 17.000000)">
                <path d="M169.304,11.4 C173.176019,11.4 176.09599,12.1359926 178.064,13.608 C180.03201,15.0800074 181.016,17.2239859 181.016,20.04 C181.016,22.2160109 180.608004,24.0959921 179.792,25.68 C178.975996,27.2640079 177.816008,28.5679949 176.312,29.592 C174.807992,30.6160051 173.000011,31.3759975 170.888,31.872 C168.775989,32.3680025 166.424013,32.616 163.832,32.616 L160.52,32.616 L157.544,45 L152.888,45 L160.76,12.168 C162.104007,11.8479984 163.527992,11.6400005 165.032,11.544 C166.536008,11.4479995 167.959993,11.4 169.304,11.4 Z M168.728,15.336 C166.455989,15.336 165.080002,15.3999994 164.6,15.528 L161.432,28.728 L164.456,28.728 C165.800007,28.728 167.175993,28.6080012 168.584,28.368 C169.992007,28.1279988 171.255994,27.704003 172.376,27.096 C173.496006,26.487997 174.415996,25.6480054 175.136,24.576 C175.856004,23.5039946 176.216,22.1200085 176.216,20.424 C176.216,18.5999909 175.544007,17.2960039 174.2,16.512 C172.855993,15.7279961 171.032012,15.336 168.728,15.336 Z M193.272,19.512 C193.656002,19.512 194.087998,19.5279998 194.568,19.56 C195.048002,19.5920002 195.519998,19.6479996 195.984,19.728 C196.448002,19.8080004 196.871998,19.8879996 197.256,19.968 C197.640002,20.0480004 197.927999,20.1359995 198.12,20.232 L196.824,24.12 C196.183997,23.8639987 195.448004,23.6720006 194.616,23.544 C193.783996,23.4159994 192.984004,23.352 192.216,23.352 C191.543997,23.352 190.880003,23.3999995 190.224,23.496 C189.567997,23.5920005 189.000002,23.7199992 188.52,23.88 L183.432,45 L178.968,45 L184.728,21 C186.008006,20.5519978 187.383993,20.1920014 188.856,19.92 C190.328007,19.6479986 191.799993,19.512 193.272,19.512 Z M199.288,45 L194.824,45 L200.824,20.04 L205.288,20.04 L199.288,45 Z M204.472,15.528 C203.735996,15.528 203.120002,15.3040022 202.624,14.856 C202.127998,14.4079978 201.88,13.784004 201.88,12.984 C201.88,11.9599949 202.199997,11.152003 202.84,10.56 C203.480003,9.96799704 204.199996,9.672 205,9.672 C205.736004,9.672 206.359997,9.90399768 206.872,10.368 C207.384003,10.8320023 207.64,11.4799958 207.64,12.312 C207.64,13.2720048 207.304003,14.047997 206.632,14.64 C205.959997,15.232003 205.240004,15.528 204.472,15.528 Z M210.392,45 C210.007998,43.3679918 209.640002,41.5760098 209.288,39.624 C208.935998,37.6719902 208.616001,35.6320106 208.328,33.504 C208.039999,31.3759894 207.800001,29.1760114 207.608,26.904 C207.415999,24.6319886 207.288,22.3440115 207.224,20.04 L211.736,20.04 C211.768,21.6080078 211.839999,23.2799911 211.952,25.056 C212.064001,26.8320089 212.199999,28.6079911 212.36,30.384 C212.520001,32.1600089 212.711999,33.8719918 212.936,35.52 C213.160001,37.1680082 213.399999,38.6639933 213.656,40.008 C214.616005,38.7919939 215.615995,37.3600082 216.656,35.712 C217.696005,34.0639918 218.695995,32.336009 219.656,30.528 C220.616005,28.719991 221.495996,26.9040091 222.296,25.08 C223.096004,23.2559909 223.735998,21.5760077 224.216,20.04 L228.728,20.04 C228.023996,22.1520106 227.128005,24.3439886 226.04,26.616 C224.951995,28.8880114 223.776006,31.119989 222.512,33.312 C221.247994,35.504011 219.920007,37.6079899 218.528,39.624 C217.135993,41.6400101 215.784007,43.4319922 214.472,45 L210.392,45 Z M242.952,45.288 C242.791999,44.9359982 242.632001,44.5440022 242.472,44.112 C242.311999,43.6799978 242.184,43.2240024 242.088,42.744 C241.383996,43.3840032 240.440006,44.0239968 239.256,44.664 C238.071994,45.3040032 236.616009,45.624 234.888,45.624 C233.479993,45.624 232.272005,45.4000022 231.264,44.952 C230.255995,44.5039978 229.432003,43.880004 228.792,43.08 C228.151997,42.279996 227.680002,41.3360054 227.376,40.248 C227.071998,39.1599946 226.92,37.9600066 226.92,36.648 C226.92,34.5039893 227.279996,32.4080102 228,30.36 C228.720004,28.3119898 229.799993,26.488008 231.24,24.888 C232.680007,23.287992 234.487989,21.992005 236.664,21 C238.840011,20.007995 241.383985,19.512 244.296,19.512 C245.160004,19.512 246.167994,19.607999 247.32,19.8 C248.472006,19.992001 249.463996,20.3119978 250.296,20.76 L246.6,35.832 C246.439999,36.5680037 246.304001,37.2719966 246.192,37.944 C246.079999,38.6160034 246.024,39.3199963 246.024,40.056 C246.024,40.7920037 246.087999,41.5359962 246.216,42.288 C246.344001,43.0400038 246.567998,43.8479957 246.888,44.712 L242.952,45.288 Z M235.8,41.832 C237.144007,41.832 238.295995,41.5440029 239.256,40.968 C240.216005,40.3919971 241.047996,39.7200038 241.752,38.952 C241.784,38.4079973 241.84,37.840003 241.92,37.248 C242,36.655997 242.103999,36.056003 242.232,35.448 L245.112,23.544 C244.951999,23.4799997 244.688002,23.4320002 244.32,23.4 C243.951998,23.3679998 243.624001,23.352 243.336,23.352 C241.511991,23.352 239.864007,23.7039965 238.392,24.408 C236.919993,25.1120035 235.664005,26.0479942 234.624,27.216 C233.583995,28.3840058 232.784003,29.7439922 232.224,31.296 C231.663997,32.8480078 231.384,34.4719915 231.384,36.168 C231.384,36.8400034 231.447999,37.5199966 231.576,38.208 C231.704001,38.8960034 231.935998,39.5039974 232.272,40.032 C232.608002,40.5600026 233.055997,40.9919983 233.616,41.328 C234.176003,41.6640017 234.903996,41.832 235.8,41.832 Z M258.52,45.672 C256.119988,45.672 254.360006,45.1440053 253.24,44.088 C252.119994,43.0319947 251.56,41.4960101 251.56,39.48 C251.56,38.1679934 251.783998,36.4880102 252.232,34.44 L257.368,13.08 L262.024,12.312 L260.152,20.04 L268.648,20.04 L267.736,23.784 L259.24,23.784 L256.6,34.824 C256.215998,36.3280075 256.024,37.6399944 256.024,38.76 C256.024,39.8160053 256.311997,40.5759977 256.888,41.04 C257.464003,41.5040023 258.423993,41.736 259.768,41.736 C260.696005,41.736 261.607996,41.5840015 262.504,41.28 C263.400004,40.9759985 264.087998,40.6960013 264.568,40.44 L264.904,44.232 C264.423998,44.5200014 263.608006,44.8319983 262.456,45.168 C261.303994,45.5040017 259.992007,45.672 258.52,45.672 Z M272.552,31.896 C274.408009,31.8319997 276.103992,31.7120009 277.64,31.536 C279.176008,31.3599991 280.503994,31.0560022 281.624,30.624 C282.744006,30.1919978 283.615997,29.6080037 284.24,28.872 C284.864003,28.1359963 285.176,27.1760059 285.176,25.992 C285.176,25.7039986 285.120001,25.4000016 285.008,25.08 C284.895999,24.7599984 284.704001,24.4640014 284.432,24.192 C284.159999,23.9199986 283.784002,23.6960009 283.304,23.52 C282.823998,23.3439991 282.232004,23.256 281.528,23.256 C280.407994,23.256 279.360005,23.4959976 278.384,23.976 C277.407995,24.4560024 276.536004,25.0879961 275.768,25.872 C274.999996,26.6560039 274.344003,27.5679948 273.8,28.608 C273.255997,29.6480052 272.840001,30.7439942 272.552,31.896 Z M277.112,45.624 C275.479992,45.624 274.072006,45.3920023 272.888,44.928 C271.703994,44.4639977 270.712004,43.8240041 269.912,43.008 C269.111996,42.1919959 268.520002,41.2400054 268.136,40.152 C267.751998,39.0639946 267.56,37.9120061 267.56,36.696 C267.56,34.4559888 267.895997,32.2960104 268.568,30.216 C269.240003,28.1359896 270.199994,26.296008 271.448,24.696 C272.696006,23.095992 274.215991,21.8240047 276.008,20.88 C277.800009,19.9359953 279.831989,19.464 282.104,19.464 C283.416007,19.464 284.543995,19.6319983 285.488,19.968 C286.432005,20.3040017 287.199997,20.7599971 287.792,21.336 C288.384003,21.9120029 288.823999,22.5759962 289.112,23.328 C289.400001,24.0800038 289.544,24.855996 289.544,25.656 C289.544,27.1600075 289.272003,28.4319948 288.728,29.472 C288.183997,30.5120052 287.464004,31.3839965 286.568,32.088 C285.671996,32.7920035 284.624006,33.3359981 283.424,33.72 C282.223994,34.1040019 280.976006,34.4079989 279.68,34.632 C278.383994,34.8560011 277.072007,35.0079996 275.744,35.088 C274.415993,35.1680004 273.160006,35.2399997 271.976,35.304 C271.944,35.5600013 271.928,35.7679992 271.928,35.928 L271.928,36.312 C271.928,37.0480037 272.015999,37.7439967 272.192,38.4 C272.368001,39.0560033 272.695998,39.6319975 273.176,40.128 C273.656002,40.6240025 274.319996,41.0159986 275.168,41.304 C276.016004,41.5920014 277.127993,41.736 278.504,41.736 C279.112003,41.736 279.743997,41.6800006 280.4,41.568 C281.056003,41.4559994 281.679997,41.3120009 282.272,41.136 C282.864003,40.9599991 283.391998,40.7840009 283.856,40.608 C284.320002,40.4319991 284.647999,40.2640008 284.84,40.104 L285.224,43.896 C284.583997,44.2480018 283.552007,44.623998 282.128,45.024 C280.703993,45.424002 279.03201,45.624 277.112,45.624 Z" id="Private" fill="#75A0D5"></path>
                <path d="M14.976,45.432 C13.0559904,45.432 11.0880101,45.3520008 9.072,45.192 C7.05598992,45.0319992 5.23200816,44.7760018 3.6,44.424 L11.28,12.264 C13.1040091,11.9119982 15.01599,11.6720006 17.016,11.544 C19.01601,11.4159994 20.8479917,11.352 22.512,11.352 C24.4320096,11.352 26.087993,11.551998 27.48,11.952 C28.872007,12.352002 30.0079956,12.8879966 30.888,13.56 C31.7680044,14.2320034 32.4239978,15.0239954 32.856,15.936 C33.2880022,16.8480046 33.504,17.8159949 33.504,18.84 C33.504,19.5440035 33.4320007,20.2799962 33.288,21.048 C33.1439993,21.8160038 32.8560022,22.5759962 32.424,23.328 C31.9919978,24.0800038 31.4000038,24.7919966 30.648,25.464 C29.8959962,26.1360034 28.9120061,26.7439973 27.696,27.288 C29.1360072,27.9280032 30.1919966,28.7999945 30.864,29.904 C31.5360034,31.0080055 31.872,32.2319933 31.872,33.576 C31.872,35.1120077 31.568003,36.5919929 30.96,38.016 C30.351997,39.4400071 29.3760067,40.7039945 28.032,41.808 C26.6879933,42.9120055 24.9440107,43.7919967 22.8,44.448 C20.6559893,45.1040033 18.0480154,45.432 14.976,45.432 Z M14.304,30.456 L12.24,39.096 C12.7520026,39.1920005 13.3999961,39.2639998 14.184,39.312 C14.9680039,39.3600002 15.6959966,39.384 16.368,39.384 C17.3280048,39.384 18.2799953,39.3120007 19.224,39.168 C20.1680047,39.0239993 21.0159962,38.7600019 21.768,38.376 C22.5200038,37.9919981 23.1359976,37.4640034 23.616,36.792 C24.0960024,36.1199966 24.336,35.2560053 24.336,34.2 C24.336,33.7519978 24.2480009,33.3040022 24.072,32.856 C23.8959991,32.4079978 23.6160019,32.0080018 23.232,31.656 C22.8479981,31.3039982 22.3440031,31.0160011 21.72,30.792 C21.0959969,30.5679989 20.3520043,30.456 19.488,30.456 L14.304,30.456 Z M15.696,24.84 L20.4,24.84 C22.3200096,24.84 23.7519953,24.4240042 24.696,23.592 C25.6400047,22.7599958 26.112,21.7680058 26.112,20.616 C26.112,20.007997 25.9760014,19.4880022 25.704,19.056 C25.4319986,18.6239978 25.0720022,18.2800013 24.624,18.024 C24.1759978,17.7679987 23.6640029,17.5840006 23.088,17.472 C22.5119971,17.3599994 21.920003,17.304 21.312,17.304 C20.6399966,17.304 19.9200038,17.3279998 19.152,17.376 C18.3839962,17.4240002 17.8080019,17.4799997 17.424,17.544 L15.696,24.84 Z M40.048,45 L32.944,45 L38.944,19.752 L46.096,19.752 L40.048,45 Z M43.504,16.68 C42.511995,16.68 41.616004,16.384003 40.816,15.792 C40.015996,15.199997 39.616,14.2960061 39.616,13.08 C39.616,12.4079966 39.7519986,11.776003 40.024,11.184 C40.2960014,10.591997 40.6559978,10.0800022 41.104,9.648 C41.5520022,9.21599784 42.071997,8.87200128 42.664,8.616 C43.256003,8.35999872 43.8879966,8.232 44.56,8.232 C45.552005,8.232 46.447996,8.52799704 47.248,9.12 C48.048004,9.71200296 48.448,10.6159939 48.448,11.832 C48.448,12.5040034 48.3120014,13.135997 48.04,13.728 C47.7679986,14.320003 47.4080022,14.8319978 46.96,15.264 C46.5119978,15.6960022 45.992003,16.0399987 45.4,16.296 C44.807997,16.5520013 44.1760034,16.68 43.504,16.68 Z M51.392,13.464 L58.832,12.312 L57.008,19.752 L64.976,19.752 L63.536,25.608 L55.616,25.608 L53.504,34.44 C53.311999,35.1760037 53.1920002,35.8639968 53.144,36.504 C53.0959998,37.1440032 53.175999,37.6959977 53.384,38.16 C53.592001,38.6240023 53.9519974,38.9839987 54.464,39.24 C54.9760026,39.4960013 55.6799955,39.624 56.576,39.624 C57.3440038,39.624 58.0879964,39.5520007 58.808,39.408 C59.5280036,39.2639993 60.2559963,39.0640013 60.992,38.808 L61.52,44.28 C60.5599952,44.6320018 59.5200056,44.9359987 58.4,45.192 C57.2799944,45.4480013 55.9520077,45.576 54.416,45.576 C52.207989,45.576 50.4960061,45.2480033 49.28,44.592 C48.0639939,43.9359967 47.2000026,43.0400057 46.688,41.904 C46.1759974,40.7679943 45.9519997,39.4640074 46.016,37.992 C46.0800003,36.5199926 46.3039981,34.9680082 46.688,33.336 L51.392,13.464 Z M63.216,34.92 C63.216,32.7439891 63.5679965,30.6960096 64.272,28.776 C64.9760035,26.8559904 65.9839934,25.1760072 67.296,23.736 C68.6080066,22.2959928 70.1999906,21.1600042 72.072,20.328 C73.9440094,19.4959958 76.0319885,19.08 78.336,19.08 C79.7760072,19.08 81.0639943,19.2159986 82.2,19.488 C83.3360057,19.7600014 84.3679954,20.1199978 85.296,20.568 L82.848,26.136 C82.2079968,25.8799987 81.5440034,25.648001 80.856,25.44 C80.1679966,25.231999 79.328005,25.128 78.336,25.128 C75.935988,25.128 74.0480069,25.9359919 72.672,27.552 C71.2959931,29.1680081 70.608,31.3679861 70.608,34.152 C70.608,35.7840082 70.9599965,37.103995 71.664,38.112 C72.3680035,39.120005 73.6639906,39.624 75.552,39.624 C76.4800046,39.624 77.3759957,39.528001 78.24,39.336 C79.1040043,39.143999 79.8719966,38.9040014 80.544,38.616 L81.072,44.328 C80.1759955,44.6800018 79.1920054,44.9919986 78.12,45.264 C77.0479946,45.5360014 75.7440077,45.672 74.208,45.672 C72.2239901,45.672 70.5440069,45.3840029 69.168,44.808 C67.7919931,44.2319971 66.6560045,43.4560049 65.76,42.48 C64.8639955,41.5039951 64.216002,40.3600066 63.816,39.048 C63.415998,37.7359934 63.216,36.3600072 63.216,34.92 Z M93.04,45.672 C91.3439915,45.672 89.8720062,45.4160026 88.624,44.904 C87.3759938,44.3919974 86.3440041,43.6720046 85.528,42.744 C84.7119959,41.8159954 84.0960021,40.7200063 83.68,39.456 C83.2639979,38.1919937 83.056,36.7920077 83.056,35.256 C83.056,33.3359904 83.3679969,31.4160096 83.992,29.496 C84.6160031,27.5759904 85.5359939,25.8480077 86.752,24.312 C87.9680061,22.7759923 89.4559912,21.5200049 91.216,20.544 C92.9760088,19.5679951 94.9919886,19.08 97.264,19.08 C98.9280083,19.08 100.391994,19.3359974 101.656,19.848 C102.920006,20.3600026 103.959996,21.0799954 104.776,22.008 C105.592004,22.9360046 106.207998,24.0319937 106.624,25.296 C107.040002,26.5600063 107.248,27.9599923 107.248,29.496 C107.248,31.4160096 106.944003,33.3359904 106.336,35.256 C105.727997,37.1760096 104.832006,38.9039923 103.648,40.44 C102.463994,41.9760077 100.984009,43.2319951 99.208,44.208 C97.4319911,45.1840049 95.3760117,45.672 93.04,45.672 Z M96.592,25.128 C95.5359947,25.128 94.608004,25.431997 93.808,26.04 C93.007996,26.648003 92.3360027,27.4159954 91.792,28.344 C91.2479973,29.2720046 90.8400014,30.2879945 90.568,31.392 C90.2959986,32.4960055 90.16,33.543995 90.16,34.536 C90.16,36.1680082 90.4159974,37.4239956 90.928,38.304 C91.4400026,39.1840044 92.3679933,39.624 93.712,39.624 C94.7680053,39.624 95.695996,39.320003 96.496,38.712 C97.296004,38.103997 97.9679973,37.3360046 98.512,36.408 C99.0560027,35.4799954 99.4639986,34.4640055 99.736,33.36 C100.008001,32.2559945 100.144,31.208005 100.144,30.216 C100.144,28.5839918 99.8880026,27.3280044 99.376,26.448 C98.8639974,25.5679956 97.9360067,25.128 96.592,25.128 Z M114.272,45 L107.168,45 L113.168,19.752 L120.32,19.752 L114.272,45 Z M117.728,16.68 C116.735995,16.68 115.840004,16.384003 115.04,15.792 C114.239996,15.199997 113.84,14.2960061 113.84,13.08 C113.84,12.4079966 113.975999,11.776003 114.248,11.184 C114.520001,10.591997 114.879998,10.0800022 115.328,9.648 C115.776002,9.21599784 116.295997,8.87200128 116.888,8.616 C117.480003,8.35999872 118.111997,8.232 118.784,8.232 C119.776005,8.232 120.671996,8.52799704 121.472,9.12 C122.272004,9.71200296 122.672,10.6159939 122.672,11.832 C122.672,12.5040034 122.536001,13.135997 122.264,13.728 C121.991999,14.320003 121.632002,14.8319978 121.184,15.264 C120.735998,15.6960022 120.216003,16.0399987 119.624,16.296 C119.031997,16.5520013 118.400003,16.68 117.728,16.68 Z M124.56,20.904 C125.104003,20.7439992 125.703997,20.560001 126.36,20.352 C127.016003,20.143999 127.751996,19.9520009 128.568,19.776 C129.384004,19.5999991 130.295995,19.4560006 131.304,19.344 C132.312005,19.2319994 133.455994,19.176 134.736,19.176 C138.512019,19.176 141.103993,20.2639891 142.512,22.44 C143.920007,24.6160109 144.160005,27.5919811 143.232,31.368 L139.968,45 L132.816,45 L135.984,31.656 C136.176001,30.8239958 136.327999,30.0160039 136.44,29.232 C136.552001,28.4479961 136.544001,27.760003 136.416,27.168 C136.287999,26.575997 135.992002,26.0960018 135.528,25.728 C135.063998,25.3599982 134.352005,25.176 133.392,25.176 C132.463995,25.176 131.520005,25.271999 130.56,25.464 L125.904,45 L118.752,45 L124.56,20.904 Z" id="Bitcoin" fill="#272D63"></path>
            </g>
        </g>
    </g>
</svg>