<svg xmlns="http://www.w3.org/2000/svg" width="204" height="48" viewBox="0 0 204 48">
    <g fill="none" fill-rule="evenodd">
        <path fill="#FFF" d="M21.944 47.633C6.943 38.203-1.349 22.64.18 3.161c15.479-4.189 27.312-4.241 44.318 0 1.526 19.458-6.747 35.012-21.72 44.444-.35.242-.496.31-.834.028zm17.09-23.355c2.346-9.409-3.379-18.94-12.788-21.285C16.839.647 7.309 6.373 4.965 15.783c-2.347 9.409 3.38 18.938 12.785 21.284 9.41 2.346 18.94-3.38 21.285-12.789z"/>
        <path fill="#FEFEFE" d="M28.266 22.272c-.659.113-.986.156-1.653.195-.305.018-.61.037-.916.054.885.606 1.44 1.435 1.152 2.587-.536 2.152-3.347 1.86-5.426 1.399l-.7 2.861h.001l-.031.126-.911 3.724 2.333.582.973-3.898c4.008.758 7.021.452 8.29-3.173.79-2.254.217-3.99-1.004-5.07a.79.79 0 0 1-.077.034c-.568.205-1.366.465-2.03.579"/>
        <path fill="#FEFEFE" d="M27.576 17.536c-.663 2.655-4.753 1.306-6.08.975l1.17-4.693c1.327.331 5.6.949 4.91 3.718m-.068-5.363l.963-3.861-2.35-.586-.938 3.76c-.618-.155-1.253-.3-1.884-.444l.944-3.784-2.348-.586-.964 3.86a77.961 77.961 0 0 1-1.5-.353l.002-.011-3.241-.81-.626 2.51s1.744.4 1.708.425c.951.237 1.123.867 1.095 1.366l-.703 2.82-.613 2.456-1.322 5.302c-.116.29-.411.724-1.077.558.023.035-1.709-.426-1.709-.426l-1.166 2.69 3.058.763c.57.143 1.127.292 1.676.433l-.973 3.905 2.348.586.963-3.864c.34.092.981.265 1.311.35l.697-2.85c-.371-.095-1-.268-1.244-.328l1.29-5.174.057.013c.215.053.487.112.795.182.949.221 1.944.303 2.912.375.595.045 1.192.075 1.79.067a8.753 8.753 0 0 0 2.638-.459c.706-.235 1.546-.537 2.07-1.093.613-.651.922-1.516 1.052-2.387.426-2.85-1.744-4.383-4.711-5.405"/>
        <g fill="#FFF">
            <path d="M139.362 15.147c2.065 0 3.623.392 4.672 1.177 1.05.785 1.575 1.929 1.575 3.43 0 1.161-.218 2.164-.653 3.009a5.588 5.588 0 0 1-1.856 2.086c-.802.546-1.767.952-2.893 1.216-1.126.265-2.38.397-3.763.397h-1.767l-1.587 6.605h-2.483l4.198-17.51c.717-.171 1.477-.282 2.279-.334a35.848 35.848 0 0 1 2.278-.076zm-.307 2.099c-1.212 0-1.946.034-2.202.102l-1.69 7.04h1.614c.716 0 1.45-.064 2.201-.192a6.495 6.495 0 0 0 2.023-.678 4.116 4.116 0 0 0 1.472-1.344c.384-.572.576-1.31.576-2.215 0-.972-.359-1.668-1.076-2.086-.716-.418-1.69-.627-2.918-.627zm13.09 2.227c.205 0 .435.009.691.026a7.3 7.3 0 0 1 .755.09c.248.042.474.085.679.127.205.043.358.09.46.141l-.69 2.074a5.376 5.376 0 0 0-1.178-.308 8.421 8.421 0 0 0-1.28-.102c-.359 0-.713.026-1.063.077a5.35 5.35 0 0 0-.908.205l-2.714 11.264h-2.38l3.071-12.8c.683-.24 1.417-.431 2.202-.576.785-.145 1.57-.218 2.355-.218zm3.209 13.594h-2.381l3.2-13.312h2.38l-3.2 13.312zm2.764-15.719c-.392 0-.72-.12-.985-.358-.265-.24-.397-.572-.397-.999 0-.546.17-.977.512-1.292.341-.316.725-.474 1.152-.474.393 0 .725.124.998.371.273.248.41.593.41 1.037 0 .512-.18.926-.538 1.242-.358.315-.742.473-1.152.473zm3.158 15.719a55.854 55.854 0 0 1-.59-2.868 75.361 75.361 0 0 1-.511-3.264 70.558 70.558 0 0 1-.384-3.52 64.849 64.849 0 0 1-.205-3.66h2.407c.017.836.055 1.728.115 2.675.06.947.132 1.894.217 2.841.086.948.188 1.86.308 2.74.119.879.247 1.676.384 2.393a26.786 26.786 0 0 0 1.6-2.29c.554-.88 1.088-1.801 1.6-2.766.512-.964.98-1.933 1.408-2.905a26.26 26.26 0 0 0 1.024-2.688h2.406a30.424 30.424 0 0 1-1.434 3.507 52.785 52.785 0 0 1-1.881 3.571 49.006 49.006 0 0 1-2.125 3.366 39.088 39.088 0 0 1-2.163 2.868h-2.176zm17.365.153a9.472 9.472 0 0 1-.256-.627 4.818 4.818 0 0 1-.205-.73c-.375.342-.879.683-1.51 1.024-.632.342-1.408.512-2.33.512-.75 0-1.395-.119-1.933-.358a3.449 3.449 0 0 1-1.318-.998 4.192 4.192 0 0 1-.755-1.51 7.122 7.122 0 0 1-.243-1.92c0-1.144.192-2.262.576-3.354a8.565 8.565 0 0 1 1.728-2.919c.768-.853 1.732-1.544 2.892-2.073 1.161-.53 2.518-.794 4.07-.794.462 0 1 .051 1.614.154.614.102 1.143.273 1.587.512l-1.971 8.038c-.086.393-.158.768-.218 1.126a7.084 7.084 0 0 0 .013 2.317c.068.401.188.832.358 1.293l-2.099.307zm-3.814-1.843c.716 0 1.33-.154 1.843-.46A5.928 5.928 0 0 0 178 29.84a13.317 13.317 0 0 1 .256-1.869l1.536-6.349a1.627 1.627 0 0 0-.422-.076 6.127 6.127 0 0 0-.525-.026c-.973 0-1.852.188-2.637.563a6.292 6.292 0 0 0-2.01 1.498 6.607 6.607 0 0 0-1.28 2.176 7.597 7.597 0 0 0-.448 2.598c0 .359.035.721.103 1.088.068.367.192.691.371.973.18.282.418.512.717.691.299.18.687.27 1.165.27zm12.117 2.048c-1.28 0-2.219-.282-2.816-.845s-.896-1.382-.896-2.457c0-.7.12-1.596.358-2.688l2.74-11.392 2.483-.41-.999 4.122h4.532l-.487 1.996h-4.531l-1.408 5.888c-.205.803-.307 1.502-.307 2.1 0 .563.153.968.46 1.216.308.247.82.37 1.537.37.495 0 .98-.08 1.459-.242a7.724 7.724 0 0 0 1.1-.448l.18 2.022c-.256.154-.691.32-1.306.5-.614.178-1.314.268-2.099.268zm7.484-7.347a34.38 34.38 0 0 0 2.713-.192c.82-.094 1.528-.256 2.125-.487.597-.23 1.063-.541 1.395-.934.333-.392.5-.904.5-1.536 0-.154-.03-.316-.09-.486a1.257 1.257 0 0 0-.307-.474 1.632 1.632 0 0 0-.602-.358c-.256-.094-.572-.141-.947-.141-.597 0-1.156.128-1.677.384-.52.256-.985.593-1.395 1.011-.41.418-.76.905-1.05 1.46a7.907 7.907 0 0 0-.665 1.753zm2.432 7.321c-.87 0-1.622-.123-2.253-.37a4.472 4.472 0 0 1-1.587-1.025 4.096 4.096 0 0 1-.947-1.523 5.497 5.497 0 0 1-.308-1.843c0-1.195.18-2.347.538-3.456.358-1.11.87-2.09 1.536-2.944a7.46 7.46 0 0 1 2.432-2.035c.956-.504 2.04-.756 3.251-.756.7 0 1.301.09 1.805.27.503.178.913.422 1.229.729.315.307.55.661.704 1.062.153.401.23.815.23 1.242 0 .802-.145 1.48-.435 2.035a4.264 4.264 0 0 1-1.152 1.395 5.3 5.3 0 0 1-1.677.87c-.64.205-1.305.368-1.997.487-.69.12-1.39.2-2.099.243-.708.043-1.378.081-2.01.115a2.8 2.8 0 0 0-.025.333v.205c0 .393.047.764.14 1.114.095.35.27.657.526.921.256.265.61.474 1.062.627.452.154 1.045.23 1.78.23.323 0 .66-.029 1.01-.089s.683-.136.999-.23c.315-.094.597-.188.845-.282.247-.094.422-.183.524-.269l.205 2.023c-.341.188-.892.388-1.651.601-.76.214-1.651.32-2.675.32zM57.054 33.297c-1.024 0-2.074-.043-3.149-.128a22.264 22.264 0 0 1-2.918-.41l4.096-17.152a24.348 24.348 0 0 1 3.059-.384 46.185 46.185 0 0 1 2.931-.102c1.024 0 1.907.107 2.65.32.742.213 1.348.5 1.817.858a3.445 3.445 0 0 1 1.395 2.816c0 .375-.038.768-.115 1.177-.077.41-.23.815-.46 1.216s-.547.781-.948 1.14c-.4.358-.926.682-1.574.972.768.342 1.331.807 1.69 1.395.358.59.537 1.242.537 1.959 0 .82-.162 1.608-.486 2.368-.325.76-.845 1.433-1.562 2.022-.717.59-1.647 1.058-2.79 1.408-1.144.35-2.535.525-4.173.525zm-.359-7.987l-1.1 4.608c.273.051.618.09 1.036.115.419.026.807.038 1.165.038.512 0 1.02-.038 1.523-.115a4.434 4.434 0 0 0 1.357-.422c.401-.205.73-.487.986-.845s.384-.82.384-1.382c0-.24-.047-.478-.14-.717a1.714 1.714 0 0 0-.449-.64 2.356 2.356 0 0 0-.806-.46c-.333-.12-.73-.18-1.19-.18h-2.766zm.743-2.995h2.509c1.024 0 1.787-.222 2.29-.666.504-.444.756-.973.756-1.587a1.53 1.53 0 0 0-.218-.832 1.62 1.62 0 0 0-.576-.55 2.664 2.664 0 0 0-.819-.295 4.951 4.951 0 0 0-.947-.09c-.358 0-.742.013-1.152.039-.41.025-.717.055-.922.09l-.921 3.89zm12.988 10.752h-3.79l3.2-13.466h3.815l-3.225 13.466zm1.843-15.104c-.53 0-1.007-.158-1.434-.474-.426-.316-.64-.798-.64-1.446 0-.359.073-.696.218-1.012a2.68 2.68 0 0 1 1.408-1.37 2.52 2.52 0 0 1 1.011-.204c.53 0 1.007.158 1.434.474.426.315.64.798.64 1.446 0 .358-.073.696-.218 1.011a2.68 2.68 0 0 1-1.408 1.37 2.52 2.52 0 0 1-1.011.205zm4.207-1.716l3.968-.614-.973 3.968h4.25l-.768 3.123h-4.224l-1.127 4.71c-.102.393-.166.76-.192 1.101-.025.342.017.636.128.884.111.247.303.44.576.576.273.136.649.204 1.127.204.41 0 .806-.038 1.19-.115a8.798 8.798 0 0 0 1.165-.32l.281 2.919a13.71 13.71 0 0 1-1.664.486c-.597.137-1.305.205-2.124.205-1.178 0-2.091-.175-2.74-.525-.648-.35-1.109-.828-1.382-1.434-.273-.605-.393-1.3-.358-2.086.034-.785.153-1.613.358-2.483l2.509-10.599zm6.306 11.444c0-1.16.188-2.253.563-3.277a8.07 8.07 0 0 1 1.613-2.688 7.542 7.542 0 0 1 2.547-1.818c.998-.443 2.112-.665 3.34-.665a8.88 8.88 0 0 1 2.062.217 8.16 8.16 0 0 1 1.65.576l-1.305 2.97a12.95 12.95 0 0 0-1.062-.371c-.367-.111-.815-.167-1.344-.167-1.28 0-2.287.431-3.02 1.293-.735.862-1.102 2.035-1.102 3.52 0 .87.188 1.574.563 2.112.376.538 1.067.806 2.074.806a6.956 6.956 0 0 0 2.662-.538l.282 3.047c-.478.188-1.003.354-1.574.5-.572.145-1.268.217-2.087.217-1.058 0-1.954-.154-2.688-.46-.734-.308-1.34-.722-1.817-1.242a4.69 4.69 0 0 1-1.037-1.83 7.508 7.508 0 0 1-.32-2.202zm15.906 5.734c-.905 0-1.69-.136-2.355-.41a4.363 4.363 0 0 1-1.651-1.152 4.976 4.976 0 0 1-.986-1.753c-.222-.674-.333-1.42-.333-2.24a9.89 9.89 0 0 1 .5-3.072 8.792 8.792 0 0 1 1.471-2.765 7.867 7.867 0 0 1 2.381-2.01c.939-.52 2.014-.78 3.226-.78.887 0 1.668.136 2.342.41.674.272 1.229.656 1.664 1.151.435.495.764 1.08.986 1.754.222.674.333 1.42.333 2.24 0 1.024-.163 2.048-.487 3.072a8.878 8.878 0 0 1-1.433 2.765 7.523 7.523 0 0 1-2.368 2.01c-.948.52-2.044.78-3.29.78zm1.894-10.957c-.563 0-1.058.162-1.484.487a4.17 4.17 0 0 0-1.076 1.228 6.062 6.062 0 0 0-.652 1.626 7.016 7.016 0 0 0-.218 1.677c0 .87.137 1.54.41 2.01.273.469.768.703 1.484.703.564 0 1.059-.162 1.485-.486a4.17 4.17 0 0 0 1.075-1.229c.29-.495.508-1.037.653-1.625a7.016 7.016 0 0 0 .218-1.677c0-.87-.137-1.54-.41-2.01-.273-.47-.768-.704-1.485-.704zm9.43 10.599h-3.79l3.2-13.466h3.815l-3.225 13.466zm1.843-15.104c-.53 0-1.007-.158-1.434-.474-.426-.316-.64-.798-.64-1.446 0-.359.073-.696.218-1.012a2.68 2.68 0 0 1 1.408-1.37 2.52 2.52 0 0 1 1.011-.204c.53 0 1.007.158 1.434.474.426.315.64.798.64 1.446 0 .358-.073.696-.218 1.011a2.68 2.68 0 0 1-1.408 1.37 2.52 2.52 0 0 1-1.011.205zm3.644 2.252c.29-.085.61-.183.96-.294.35-.11.742-.213 1.177-.307.435-.094.922-.17 1.46-.23.537-.06 1.147-.09 1.83-.09 2.014 0 3.396.58 4.147 1.74.751 1.161.879 2.748.384 4.762l-1.74 7.27h-3.815l1.69-7.116c.102-.444.183-.875.243-1.293.06-.418.055-.785-.013-1.1a1.301 1.301 0 0 0-.474-.769c-.247-.196-.627-.294-1.139-.294-.495 0-.998.051-1.51.153l-2.484 10.42h-3.814l3.098-12.852z"/>
        </g>
    </g>
</svg>
